<?xml version="1.0" encoding="iso-8859-1"?>
<!-- Generator: Adobe Illustrator 18.1.1, SVG Export Plug-In . SVG Version: 6.00 Build 0)  -->
<svg version="1.1" id="_x31_" xmlns="http://www.w3.org/2000/svg" xmlns:xlink="http://www.w3.org/1999/xlink" x="0px" y="0px"
	 viewBox="0 0 512 512" style="enable-background:new 0 0 512 512;" xml:space="preserve">
<g>
	<path style="fill:#E72319;" d="M506.857,274.076l-4.113-3.937L255.995,33.876l-88.658,84.888V71.734h-77.32v121.07L0,278.992
		l51.418,49.24l32.339-30.966v180.858h344.483V297.27l32.335,30.962L512,278.992L506.857,274.076z M107.735,89.445h41.887v52.378
		h3.486l-44.902,42.991h-0.47V89.445z M292.905,460.412h-73.814v-107.96h73.814V460.412z M410.527,271.33v189.082h-106.72V341.546
		H208.19v118.866H101.469V271.33h-0.47l154.998-148.411L410.995,271.33H410.527z M460.576,303.709L255.997,107.82L51.422,303.709
		l-25.813-24.713L255.997,58.401l230.388,220.594L460.576,303.709z"/>
</g>
</svg>
